<svg xmlns="http://www.w3.org/2000/svg" viewBox="0 -960 960 960" width="512" height="512">
  <rect width="960" height="960" y="-960" fill="#2d3748"/>
  <path fill="#FFFFFF" d="M200-120q-33 0-56.5-23.5T120-200v-560q0-33 23.5-56.5T200-840h560q33 0 56.5 23.5T840-760v560q0 33-23.5 56.5T760-120H200Zm0-80h560v-560H200v560Zm200-80q-50 0-85-35t-35-85q0-50 35-85t85-35q50 0 85 35t35 85q0 50-35 85t-85 35Zm0-80q17 0 28.5-11.5T440-400q0-17-11.5-28.5T400-440q-17 0-28.5 11.5T360-400q0 17 11.5 28.5T400-360Zm160-240v-80h-80v-80h80v-80h80v80h80v80h-80v80h-80Z"/>
</svg>