<svg id="Layer_1" data-name="Layer 1" xmlns="http://www.w3.org/2000/svg" viewBox="0 0 512 512">
  <defs>
    <style>
      .cls-1 { fill: #66bf79; }
      .cls-2 { fill: #2d3748; }
    </style>
  </defs>
  <rect class="cls-2" width="512" height="512" rx="56.54"/>
  <path class="cls-1" d="M327.8,246.18c4.6,0,8.49-1.56,11.67-4.67,3.18-3.11,4.77-6.97,4.77-11.57s-1.56-8.49-4.67-11.67c-3.11-3.18-6.97-4.77-11.57-4.77s-8.49,1.56-11.67,4.67c-3.18,3.11-4.77,6.97-4.77,11.57s1.56,8.49,4.67,11.67c3.11,3.18,6.97,4.77,11.57,4.77ZM191.72,213.5h87.15v-32.68h-87.15v32.68ZM126.36,420.48c-9.68-37.52-19.37-71.87-29.05-103.04-9.68-31.17-14.52-62.18-14.52-93.05,0-27.33,9.51-50.51,28.52-69.52,19.01-19.02,42.19-28.52,69.52-28.52h90.33c9.08-10.59,19.97-18.69,32.68-24.28,12.71-5.6,26.18-8.4,40.4-8.4,6.05,0,11.2,2.12,15.43,6.35,4.24,4.24,6.35,9.38,6.35,15.43,0,2.42-.3,4.84-.91,7.26s-1.51,4.84-2.72,7.26c-1.51,3.03-2.95,5.98-4.31,8.85-1.36,2.87-2.35,5.98-2.95,9.31l43.57,43.57h32.68v119.83l-49.02,10.89-27.23,98.04h-98.04v-32.68h-32.68v32.68h-98.04ZM150.87,387.8h40.85v-32.68h98.04v32.68h40.4l25.87-93.05,42.67-9.53v-60.82h-13.62l-62.64-62.64c0-5.81.38-11.41,1.13-16.79.76-5.38,1.89-10.83,3.4-16.35-7.87,2.42-15.21,6.05-22.01,10.89-6.81,4.84-12.63,11.35-17.48,19.52h-106.67c-18.05,0-33.46,6.38-46.22,19.14-12.76,12.76-19.14,28.17-19.14,46.22,0,25.12,4.01,51.06,12.03,77.84,8.02,26.78,15.81,55.3,23.38,85.56Z"/>
</svg>
