<?xml version="1.0" encoding="UTF-8"?>
<svg id="Layer_1" data-name="Layer 1" xmlns="http://www.w3.org/2000/svg" viewBox="0 0 192 192">
  <defs>
    <style>
      .cls-1 {
        fill: #1f2937;
      }

      .cls-2 {
        fill: #66bf79;
      }
    </style>
  </defs>
  <rect class="cls-1" width="192" height="192" rx="37.92" ry="37.92"/>
  <path class="cls-2" d="M122.92,92.32c1.73,0,3.18-.58,4.38-1.75,1.19-1.17,1.79-2.61,1.79-4.34s-.58-3.18-1.75-4.38c-1.17-1.19-2.61-1.79-4.34-1.79s-3.18.58-4.38,1.75-1.79,2.61-1.79,4.34.58,3.18,1.75,4.38c1.17,1.19,2.61,1.79,4.34,1.79ZM71.9,80.06h32.68v-12.26h-32.68v12.26ZM47.39,157.68c-3.63-14.07-7.26-26.95-10.89-38.64-3.63-11.69-5.45-23.32-5.45-34.89,0-10.25,3.57-18.94,10.7-26.07,7.13-7.13,15.82-10.7,26.07-10.7h33.87c3.4-3.97,7.49-7.01,12.26-9.11s9.82-3.15,15.15-3.15c2.27,0,4.2.79,5.79,2.38s2.38,3.52,2.38,5.79c0,.91-.11,1.82-.34,2.72s-.57,1.82-1.02,2.72c-.57,1.13-1.11,2.24-1.62,3.32s-.88,2.24-1.11,3.49l16.34,16.34h12.26v44.94l-18.38,4.09-10.21,36.77h-36.77v-12.26h-12.26v12.26h-36.77ZM56.58,145.42h15.32v-12.26h36.77v12.26h15.15l9.7-34.89,16-3.57v-22.81h-5.11l-23.49-23.49c0-2.18.14-4.28.43-6.29s.71-4.06,1.28-6.13c-2.95.91-5.7,2.27-8.26,4.09s-4.74,4.26-6.55,7.32h-40c-6.77,0-12.55,2.39-17.33,7.18-4.79,4.79-7.18,10.56-7.18,17.33,0,9.42,1.5,19.15,4.51,29.19,3.01,10.04,5.93,20.74,8.77,32.09Z"/>
</svg>